<mxfile host="Electron" agent="Mozilla/5.0 (Macintosh; Intel Mac OS X 10_15_7) AppleWebKit/537.36 (KHTML, like Gecko) draw.io/24.7.17 Chrome/128.0.6613.36 Electron/32.0.1 Safari/537.36" version="24.7.17">
  <diagram name="Page-1" id="Hbj-Z_7zlYS9en-MVuIr">
    <mxGraphModel dx="1854" dy="1278" grid="1" gridSize="10" guides="1" tooltips="1" connect="1" arrows="1" fold="1" page="0" pageScale="1" pageWidth="1100" pageHeight="850" background="#ffffff" math="0" shadow="0">
      <root>
        <mxCell id="0" />
        <mxCell id="1" parent="0" />
        <mxCell id="fZfX9N8Fhubd6BuBVz-i-63" value="AWS Cloud" style="" parent="0" />
        <mxCell id="fZfX9N8Fhubd6BuBVz-i-67" value="" style="points=[[0,0],[0.25,0],[0.5,0],[0.75,0],[1,0],[1,0.25],[1,0.5],[1,0.75],[1,1],[0.75,1],[0.5,1],[0.25,1],[0,1],[0,0.75],[0,0.5],[0,0.25]];outlineConnect=0;html=1;whiteSpace=wrap;fontSize=14;fontStyle=1;container=1;pointerEvents=0;collapsible=0;recursiveResize=0;shape=mxgraph.aws4.group;grIcon=mxgraph.aws4.group_aws_cloud_alt;strokeColor=#666666;fillColor=#f5f5f5;verticalAlign=top;align=left;spacingLeft=30;fontColor=#333333;dashed=0;fontFamily=Helvetica;labelBackgroundColor=none;" parent="fZfX9N8Fhubd6BuBVz-i-63" vertex="1">
          <mxGeometry x="160" y="80" width="610" height="760" as="geometry" />
        </mxCell>
        <mxCell id="fZfX9N8Fhubd6BuBVz-i-64" value="VPC" parent="0" />
        <mxCell id="fZfX9N8Fhubd6BuBVz-i-70" value="VPN&amp;nbsp;&lt;span style=&quot;background-color: initial;&quot;&gt;Client&amp;nbsp;&lt;/span&gt;&lt;span style=&quot;background-color: initial;&quot;&gt;VPC&lt;/span&gt;" style="points=[[0,0],[0.25,0],[0.5,0],[0.75,0],[1,0],[1,0.25],[1,0.5],[1,0.75],[1,1],[0.75,1],[0.5,1],[0.25,1],[0,1],[0,0.75],[0,0.5],[0,0.25]];outlineConnect=0;html=1;whiteSpace=wrap;fontSize=14;fontStyle=1;container=1;pointerEvents=0;collapsible=0;recursiveResize=0;shape=mxgraph.aws4.group;grIcon=mxgraph.aws4.group_vpc2;strokeColor=#9673a6;fillColor=#e1d5e7;verticalAlign=top;align=left;spacingLeft=30;dashed=0;fontFamily=Helvetica;labelBackgroundColor=none;" parent="fZfX9N8Fhubd6BuBVz-i-64" vertex="1">
          <mxGeometry x="590" y="630" width="150" height="183" as="geometry" />
        </mxCell>
        <mxCell id="fZfX9N8Fhubd6BuBVz-i-69" value="Client VPN VPC" style="points=[[0,0],[0.25,0],[0.5,0],[0.75,0],[1,0],[1,0.25],[1,0.5],[1,0.75],[1,1],[0.75,1],[0.5,1],[0.25,1],[0,1],[0,0.75],[0,0.5],[0,0.25]];outlineConnect=0;html=1;whiteSpace=wrap;fontSize=14;fontStyle=1;container=1;pointerEvents=0;collapsible=0;recursiveResize=0;shape=mxgraph.aws4.group;grIcon=mxgraph.aws4.group_vpc2;strokeColor=#9673a6;fillColor=#e1d5e7;verticalAlign=top;align=left;spacingLeft=30;dashed=0;fontFamily=Helvetica;labelBackgroundColor=none;" parent="fZfX9N8Fhubd6BuBVz-i-64" vertex="1">
          <mxGeometry x="590" y="260" width="150" height="350" as="geometry" />
        </mxCell>
        <mxCell id="fZfX9N8Fhubd6BuBVz-i-12" style="edgeStyle=orthogonalEdgeStyle;shape=connector;rounded=0;orthogonalLoop=1;jettySize=auto;html=1;strokeColor=#41AB00;strokeWidth=3;align=center;verticalAlign=middle;fontFamily=Helvetica;fontSize=11;fontColor=default;labelBackgroundColor=default;startArrow=block;startFill=1;endArrow=block;endFill=1;fillColor=#60a917;" parent="fZfX9N8Fhubd6BuBVz-i-69" source="fZfX9N8Fhubd6BuBVz-i-2" target="fZfX9N8Fhubd6BuBVz-i-3" edge="1">
          <mxGeometry relative="1" as="geometry" />
        </mxCell>
        <mxCell id="fZfX9N8Fhubd6BuBVz-i-65" value="Resources" parent="0" />
        <mxCell id="fZfX9N8Fhubd6BuBVz-i-24" value="Client&amp;nbsp;&lt;span style=&quot;background-color: initial;&quot;&gt;VPN&lt;/span&gt;&lt;div style=&quot;font-size: 12px;&quot;&gt;Connection&lt;/div&gt;&lt;div style=&quot;font-size: 12px;&quot;&gt;via&amp;nbsp;&lt;span style=&quot;background-color: initial;&quot;&gt;OpenVPN&lt;/span&gt;&lt;/div&gt;" style="edgeStyle=orthogonalEdgeStyle;shape=connector;rounded=0;orthogonalLoop=1;jettySize=auto;html=1;strokeColor=#007FFF;strokeWidth=3;align=left;verticalAlign=middle;fontFamily=Helvetica;fontSize=12;fontColor=default;labelBackgroundColor=none;startArrow=block;startFill=1;endArrow=block;endFill=1;labelPosition=right;verticalLabelPosition=middle;spacingLeft=5;fillColor=#0050ef;" parent="fZfX9N8Fhubd6BuBVz-i-65" source="fZfX9N8Fhubd6BuBVz-i-6" target="fZfX9N8Fhubd6BuBVz-i-1" edge="1">
          <mxGeometry relative="1" as="geometry">
            <Array as="points" />
            <mxPoint x="500" y="460" as="targetPoint" />
          </mxGeometry>
        </mxCell>
        <mxCell id="fZfX9N8Fhubd6BuBVz-i-6" value="VPN Client IGW" style="sketch=0;outlineConnect=0;fontColor=#232F3E;gradientColor=none;fillColor=#8C4FFF;strokeColor=none;dashed=0;verticalLabelPosition=bottom;verticalAlign=top;align=center;html=1;fontSize=14;fontStyle=1;aspect=fixed;pointerEvents=1;shape=mxgraph.aws4.internet_gateway;" parent="fZfX9N8Fhubd6BuBVz-i-65" vertex="1">
          <mxGeometry x="462" y="671" width="78" height="78" as="geometry" />
        </mxCell>
        <mxCell id="fZfX9N8Fhubd6BuBVz-i-48" value="Client VPN Connection&lt;div style=&quot;font-size: 12px;&quot;&gt;&lt;br style=&quot;font-size: 12px;&quot;&gt;&lt;/div&gt;&lt;div style=&quot;font-size: 12px;&quot;&gt;via AWS Client VPN for Desktop&lt;/div&gt;" style="edgeStyle=orthogonalEdgeStyle;shape=connector;rounded=0;orthogonalLoop=1;jettySize=auto;html=1;strokeColor=#007FFF;strokeWidth=3;align=center;verticalAlign=middle;fontFamily=Helvetica;fontSize=12;fontColor=default;labelBackgroundColor=none;startArrow=block;startFill=1;endArrow=block;endFill=1;fillColor=#0050ef;" parent="fZfX9N8Fhubd6BuBVz-i-65" source="fZfX9N8Fhubd6BuBVz-i-7" target="fZfX9N8Fhubd6BuBVz-i-1" edge="1">
          <mxGeometry x="-0.076" relative="1" as="geometry">
            <mxPoint as="offset" />
          </mxGeometry>
        </mxCell>
        <mxCell id="fZfX9N8Fhubd6BuBVz-i-7" value="Authenticated User" style="sketch=0;outlineConnect=0;fontColor=#232F3E;gradientColor=none;fillColor=#232F3D;strokeColor=none;dashed=0;verticalLabelPosition=top;verticalAlign=bottom;align=center;html=1;fontSize=14;fontStyle=1;aspect=fixed;pointerEvents=1;shape=mxgraph.aws4.authenticated_user;labelPosition=center;" parent="fZfX9N8Fhubd6BuBVz-i-65" vertex="1">
          <mxGeometry x="-10" y="317" width="78" height="78" as="geometry" />
        </mxCell>
        <mxCell id="fZfX9N8Fhubd6BuBVz-i-8" value="Internet" style="sketch=0;outlineConnect=0;fontColor=#232F3E;gradientColor=none;fillColor=#232F3D;strokeColor=none;dashed=0;verticalLabelPosition=top;verticalAlign=bottom;align=center;html=1;fontSize=14;fontStyle=1;aspect=fixed;pointerEvents=1;shape=mxgraph.aws4.internet;labelPosition=center;" parent="fZfX9N8Fhubd6BuBVz-i-65" vertex="1">
          <mxGeometry x="462" y="-20" width="78" height="48" as="geometry" />
        </mxCell>
        <mxCell id="fZfX9N8Fhubd6BuBVz-i-61" value="SSH Connection&lt;div style=&quot;font-size: 12px;&quot;&gt;&lt;br style=&quot;font-size: 12px;&quot;&gt;&lt;div style=&quot;font-size: 12px;&quot;&gt;via Private Key&lt;/div&gt;&lt;/div&gt;" style="edgeStyle=orthogonalEdgeStyle;shape=connector;rounded=0;orthogonalLoop=1;jettySize=auto;html=1;strokeColor=#B266FF;strokeWidth=3;align=center;verticalAlign=middle;fontFamily=Helvetica;fontSize=12;fontColor=default;labelBackgroundColor=none;startArrow=block;startFill=1;endArrow=block;endFill=1;fillColor=#6a00ff;" parent="fZfX9N8Fhubd6BuBVz-i-65" source="fZfX9N8Fhubd6BuBVz-i-9" target="fZfX9N8Fhubd6BuBVz-i-6" edge="1">
          <mxGeometry relative="1" as="geometry" />
        </mxCell>
        <mxCell id="fZfX9N8Fhubd6BuBVz-i-9" value="User" style="sketch=0;outlineConnect=0;fontColor=#232F3E;gradientColor=none;fillColor=#232F3D;strokeColor=none;dashed=0;verticalLabelPosition=bottom;verticalAlign=top;align=center;html=1;fontSize=14;fontStyle=1;aspect=fixed;pointerEvents=1;shape=mxgraph.aws4.user;" parent="fZfX9N8Fhubd6BuBVz-i-65" vertex="1">
          <mxGeometry x="-10" y="671" width="78" height="78" as="geometry" />
        </mxCell>
        <mxCell id="fZfX9N8Fhubd6BuBVz-i-18" value="S3 Bucket" style="sketch=0;outlineConnect=0;fontColor=#232F3E;gradientColor=none;fillColor=#7AA116;strokeColor=none;dashed=0;verticalLabelPosition=bottom;verticalAlign=top;align=center;html=1;fontSize=14;fontStyle=1;aspect=fixed;pointerEvents=1;shape=mxgraph.aws4.bucket_with_objects;fontFamily=Helvetica;labelBackgroundColor=none;snapToPoint=1;resizable=0;perimeter=rectanglePerimeter;" parent="fZfX9N8Fhubd6BuBVz-i-65" vertex="1">
          <mxGeometry x="390" y="492" width="75" height="78" as="geometry" />
        </mxCell>
        <mxCell id="fZfX9N8Fhubd6BuBVz-i-39" value="Download via&lt;div style=&quot;font-size: 12px;&quot;&gt;&lt;br style=&quot;font-size: 12px;&quot;&gt;&lt;/div&gt;&lt;div style=&quot;font-size: 12px;&quot;&gt;Presigned URL&lt;/div&gt;" style="edgeStyle=orthogonalEdgeStyle;shape=connector;rounded=0;orthogonalLoop=1;jettySize=auto;html=1;strokeColor=#B266FF;strokeWidth=3;align=center;verticalAlign=middle;fontFamily=Helvetica;fontSize=12;fontColor=default;labelBackgroundColor=none;startArrow=none;startFill=0;endArrow=block;endFill=1;fillColor=#6a00ff;" parent="fZfX9N8Fhubd6BuBVz-i-65" source="fZfX9N8Fhubd6BuBVz-i-20" target="fZfX9N8Fhubd6BuBVz-i-7" edge="1">
          <mxGeometry relative="1" as="geometry" />
        </mxCell>
        <mxCell id="fZfX9N8Fhubd6BuBVz-i-58" style="edgeStyle=orthogonalEdgeStyle;shape=connector;rounded=0;orthogonalLoop=1;jettySize=auto;html=1;strokeColor=default;strokeWidth=2;align=center;verticalAlign=middle;fontFamily=Helvetica;fontSize=11;fontColor=default;labelBackgroundColor=default;startArrow=none;startFill=0;endArrow=none;endFill=0;" parent="fZfX9N8Fhubd6BuBVz-i-65" source="fZfX9N8Fhubd6BuBVz-i-20" target="fZfX9N8Fhubd6BuBVz-i-18" edge="1">
          <mxGeometry relative="1" as="geometry" />
        </mxCell>
        <mxCell id="fZfX9N8Fhubd6BuBVz-i-20" value="Client VPN&lt;div style=&quot;font-size: 14px;&quot;&gt;Configuration&lt;/div&gt;&lt;div style=&quot;font-size: 14px;&quot;&gt;S3 Object&lt;/div&gt;" style="sketch=0;outlineConnect=0;fontColor=#232F3E;gradientColor=none;fillColor=#7AA116;strokeColor=none;dashed=0;verticalLabelPosition=top;verticalAlign=bottom;align=center;html=1;fontSize=14;fontStyle=1;aspect=fixed;pointerEvents=1;shape=mxgraph.aws4.object;fontFamily=Helvetica;labelBackgroundColor=none;snapToPoint=1;labelPosition=center;" parent="fZfX9N8Fhubd6BuBVz-i-65" vertex="1">
          <mxGeometry x="230" y="444" width="48" height="48" as="geometry" />
        </mxCell>
        <mxCell id="fZfX9N8Fhubd6BuBVz-i-37" value="Download via&lt;div style=&quot;font-size: 12px;&quot;&gt;&lt;br style=&quot;font-size: 12px;&quot;&gt;&lt;/div&gt;&lt;div style=&quot;font-size: 12px;&quot;&gt;Presigned URL&lt;/div&gt;" style="edgeStyle=orthogonalEdgeStyle;shape=connector;rounded=0;orthogonalLoop=1;jettySize=auto;html=1;strokeColor=#B266FF;strokeWidth=3;align=center;verticalAlign=middle;fontFamily=Helvetica;fontSize=12;fontColor=default;labelBackgroundColor=none;startArrow=none;startFill=0;endArrow=block;endFill=1;fillColor=#6a00ff;" parent="fZfX9N8Fhubd6BuBVz-i-65" source="fZfX9N8Fhubd6BuBVz-i-21" target="fZfX9N8Fhubd6BuBVz-i-9" edge="1">
          <mxGeometry relative="1" as="geometry" />
        </mxCell>
        <mxCell id="fZfX9N8Fhubd6BuBVz-i-57" style="edgeStyle=orthogonalEdgeStyle;shape=connector;rounded=0;orthogonalLoop=1;jettySize=auto;html=1;strokeColor=default;strokeWidth=2;align=center;verticalAlign=middle;fontFamily=Helvetica;fontSize=11;fontColor=default;labelBackgroundColor=default;startArrow=none;startFill=0;endArrow=none;endFill=0;" parent="fZfX9N8Fhubd6BuBVz-i-65" source="fZfX9N8Fhubd6BuBVz-i-21" target="fZfX9N8Fhubd6BuBVz-i-18" edge="1">
          <mxGeometry relative="1" as="geometry" />
        </mxCell>
        <mxCell id="fZfX9N8Fhubd6BuBVz-i-21" value="SSH Private Key&lt;div style=&quot;font-size: 14px;&quot;&gt;S3 Object&lt;/div&gt;" style="sketch=0;outlineConnect=0;fontColor=#232F3E;gradientColor=none;fillColor=#7AA116;strokeColor=none;dashed=0;verticalLabelPosition=bottom;verticalAlign=top;align=center;html=1;fontSize=14;fontStyle=1;aspect=fixed;pointerEvents=1;shape=mxgraph.aws4.object;fontFamily=Helvetica;labelBackgroundColor=none;snapToPoint=1;" parent="fZfX9N8Fhubd6BuBVz-i-65" vertex="1">
          <mxGeometry x="230" y="570" width="48" height="48" as="geometry" />
        </mxCell>
        <mxCell id="fZfX9N8Fhubd6BuBVz-i-13" style="edgeStyle=orthogonalEdgeStyle;shape=connector;rounded=0;orthogonalLoop=1;jettySize=auto;html=1;strokeColor=#41AB00;strokeWidth=3;align=center;verticalAlign=middle;fontFamily=Helvetica;fontSize=11;fontColor=default;labelBackgroundColor=default;startArrow=block;startFill=1;endArrow=block;endFill=1;fillColor=#60a917;" parent="fZfX9N8Fhubd6BuBVz-i-65" source="fZfX9N8Fhubd6BuBVz-i-6" target="fZfX9N8Fhubd6BuBVz-i-4" edge="1">
          <mxGeometry relative="1" as="geometry">
            <Array as="points">
              <mxPoint x="580" y="710" />
              <mxPoint x="580" y="710" />
            </Array>
          </mxGeometry>
        </mxCell>
        <mxCell id="fZfX9N8Fhubd6BuBVz-i-4" value="VPN Client&lt;div style=&quot;font-size: 14px;&quot;&gt;EC2 Instance&lt;/div&gt;" style="sketch=0;outlineConnect=0;fontColor=#232F3E;gradientColor=none;fillColor=#ED7100;strokeColor=none;dashed=0;verticalLabelPosition=bottom;verticalAlign=top;align=center;html=1;fontSize=14;fontStyle=1;aspect=fixed;pointerEvents=1;shape=mxgraph.aws4.instance2;" parent="fZfX9N8Fhubd6BuBVz-i-65" vertex="1">
          <mxGeometry x="630" y="670" width="80" height="80" as="geometry" />
        </mxCell>
        <mxCell id="Sn0YPnw91M2avDxQACOL-1" value="Legend" style="shape=table;startSize=30;container=1;collapsible=0;childLayout=tableLayout;fontSize=18;align=left;verticalAlign=top;fillColor=#E6E6E6;strokeColor=default;fontColor=#000000;fontStyle=1;spacingLeft=6;spacing=0;resizable=0;fontFamily=Helvetica;labelBackgroundColor=none;strokeWidth=2;" parent="fZfX9N8Fhubd6BuBVz-i-65" vertex="1">
          <mxGeometry x="220" y="106" width="202" height="210" as="geometry" />
        </mxCell>
        <mxCell id="Sn0YPnw91M2avDxQACOL-2" value="" style="shape=tableRow;horizontal=0;startSize=0;swimlaneHead=0;swimlaneBody=0;strokeColor=inherit;top=0;left=0;bottom=0;right=0;collapsible=0;dropTarget=0;fillColor=#E6E6E6;points=[[0,0.5],[1,0.5]];portConstraint=eastwest;fontSize=12;fontFamily=Helvetica;fontColor=default;labelBackgroundColor=none;strokeWidth=2;" parent="Sn0YPnw91M2avDxQACOL-1" vertex="1">
          <mxGeometry y="30" width="202" height="45" as="geometry" />
        </mxCell>
        <mxCell id="Sn0YPnw91M2avDxQACOL-3" value="&lt;font style=&quot;font-size: 14px;&quot;&gt;Public Traffic&lt;/font&gt;" style="shape=partialRectangle;html=1;whiteSpace=wrap;connectable=0;strokeColor=inherit;overflow=hidden;fillColor=#E6E6E6;top=0;left=0;bottom=0;right=0;pointerEvents=1;fontSize=14;align=left;fontColor=#E30000;gradientColor=none;spacingLeft=10;spacingRight=4;fontFamily=Helvetica;labelBackgroundColor=none;fontStyle=1;strokeWidth=2;" parent="Sn0YPnw91M2avDxQACOL-2" vertex="1">
          <mxGeometry width="202" height="45" as="geometry">
            <mxRectangle width="202" height="45" as="alternateBounds" />
          </mxGeometry>
        </mxCell>
        <mxCell id="Sn0YPnw91M2avDxQACOL-4" value="" style="shape=tableRow;horizontal=0;startSize=0;swimlaneHead=0;swimlaneBody=0;strokeColor=inherit;top=0;left=0;bottom=0;right=0;collapsible=0;dropTarget=0;fillColor=#E6E6E6;points=[[0,0.5],[1,0.5]];portConstraint=eastwest;fontSize=14;fontFamily=Helvetica;fontColor=default;labelBackgroundColor=none;fontStyle=1;strokeWidth=2;" parent="Sn0YPnw91M2avDxQACOL-1" vertex="1">
          <mxGeometry y="75" width="202" height="45" as="geometry" />
        </mxCell>
        <mxCell id="Sn0YPnw91M2avDxQACOL-5" value="Private Traffic" style="shape=partialRectangle;html=1;whiteSpace=wrap;connectable=0;strokeColor=inherit;overflow=hidden;fillColor=#E6E6E6;top=0;left=0;bottom=0;right=0;pointerEvents=1;fontSize=14;align=left;fontColor=#41AB00;gradientColor=none;spacingLeft=10;spacingRight=4;fontFamily=Helvetica;labelBackgroundColor=none;fontStyle=1;strokeWidth=2;" parent="Sn0YPnw91M2avDxQACOL-4" vertex="1">
          <mxGeometry width="202" height="45" as="geometry">
            <mxRectangle width="202" height="45" as="alternateBounds" />
          </mxGeometry>
        </mxCell>
        <mxCell id="Sn0YPnw91M2avDxQACOL-6" value="" style="shape=tableRow;horizontal=0;startSize=0;swimlaneHead=0;swimlaneBody=0;strokeColor=inherit;top=0;left=0;bottom=0;right=0;collapsible=0;dropTarget=0;fillColor=#E6E6E6;points=[[0,0.5],[1,0.5]];portConstraint=eastwest;fontSize=14;fontFamily=Helvetica;fontColor=default;labelBackgroundColor=none;strokeWidth=2;" parent="Sn0YPnw91M2avDxQACOL-1" vertex="1">
          <mxGeometry y="120" width="202" height="45" as="geometry" />
        </mxCell>
        <mxCell id="Sn0YPnw91M2avDxQACOL-7" value="IPsec Encrypted Traffic" style="shape=partialRectangle;html=1;whiteSpace=wrap;connectable=0;strokeColor=inherit;overflow=hidden;fillColor=#E6E6E6;top=0;left=0;bottom=0;right=0;pointerEvents=1;fontSize=14;align=left;fontColor=#007FFF;gradientColor=none;spacingLeft=10;spacingRight=4;fontFamily=Helvetica;labelBackgroundColor=none;fontStyle=1;strokeWidth=2;" parent="Sn0YPnw91M2avDxQACOL-6" vertex="1">
          <mxGeometry width="202" height="45" as="geometry">
            <mxRectangle width="202" height="45" as="alternateBounds" />
          </mxGeometry>
        </mxCell>
        <mxCell id="Sn0YPnw91M2avDxQACOL-8" value="" style="shape=tableRow;horizontal=0;startSize=0;swimlaneHead=0;swimlaneBody=0;strokeColor=inherit;top=0;left=0;bottom=0;right=0;collapsible=0;dropTarget=0;fillColor=#E6E6E6;points=[[0,0.5],[1,0.5]];portConstraint=eastwest;fontSize=13;fontFamily=Helvetica;fontColor=default;labelBackgroundColor=none;strokeWidth=2;" parent="Sn0YPnw91M2avDxQACOL-1" vertex="1">
          <mxGeometry y="165" width="202" height="45" as="geometry" />
        </mxCell>
        <mxCell id="Sn0YPnw91M2avDxQACOL-9" value="TLS/SSH Encrypted Traffic" style="shape=partialRectangle;html=1;whiteSpace=wrap;connectable=0;strokeColor=inherit;overflow=hidden;fillColor=#E6E6E6;top=0;left=0;bottom=0;right=0;pointerEvents=1;fontSize=14;align=left;fontColor=#B266FF;gradientColor=none;spacingLeft=10;spacingRight=4;fontFamily=Helvetica;labelBackgroundColor=none;fontStyle=1;strokeWidth=2;" parent="fZfX9N8Fhubd6BuBVz-i-65" vertex="1">
          <mxGeometry x="220" y="271" width="202" height="45" as="geometry">
            <mxRectangle width="202" height="45" as="alternateBounds" />
          </mxGeometry>
        </mxCell>
        <mxCell id="fZfX9N8Fhubd6BuBVz-i-1" value="Client VPN&lt;div style=&quot;font-size: 14px;&quot;&gt;Endpoint&lt;/div&gt;" style="sketch=0;points=[[0,0,0],[0.25,0,0],[0.5,0,0],[0.75,0,0],[1,0,0],[0,1,0],[0.25,1,0],[0.5,1,0],[0.75,1,0],[1,1,0],[0,0.25,0],[0,0.5,0],[0,0.75,0],[1,0.25,0],[1,0.5,0],[1,0.75,0]];outlineConnect=0;fontColor=#232F3E;fillColor=#8C4FFF;strokeColor=#ffffff;dashed=0;verticalLabelPosition=bottom;verticalAlign=top;align=right;html=1;fontSize=14;fontStyle=1;aspect=fixed;shape=mxgraph.aws4.resourceIcon;resIcon=mxgraph.aws4.client_vpn;labelPosition=left;spacingLeft=0;spacing=0;" parent="fZfX9N8Fhubd6BuBVz-i-65" vertex="1">
          <mxGeometry x="462" y="317" width="78" height="78" as="geometry" />
        </mxCell>
        <mxCell id="8ceHzj7rLfjJUXA0X_Rz-2" style="edgeStyle=orthogonalEdgeStyle;rounded=0;orthogonalLoop=1;jettySize=auto;html=1;fontFamily=Helvetica;fontSize=14;fontColor=#232F3E;fontStyle=1;startArrow=block;startFill=1;endArrow=block;endFill=1;strokeWidth=3;strokeColor=#41AB00;" edge="1" parent="fZfX9N8Fhubd6BuBVz-i-65" source="fZfX9N8Fhubd6BuBVz-i-1" target="fZfX9N8Fhubd6BuBVz-i-2">
          <mxGeometry relative="1" as="geometry" />
        </mxCell>
        <mxCell id="fZfX9N8Fhubd6BuBVz-i-2" value="Client VPN ENI" style="sketch=0;outlineConnect=0;fontColor=#232F3E;gradientColor=none;fillColor=#8C4FFF;strokeColor=none;dashed=0;verticalLabelPosition=top;verticalAlign=bottom;align=center;html=1;fontSize=14;fontStyle=1;aspect=fixed;pointerEvents=1;shape=mxgraph.aws4.elastic_network_interface;labelPosition=center;" parent="fZfX9N8Fhubd6BuBVz-i-65" vertex="1">
          <mxGeometry x="631" y="317" width="78" height="78" as="geometry" />
        </mxCell>
        <mxCell id="fZfX9N8Fhubd6BuBVz-i-3" value="Client VPN&lt;div style=&quot;font-size: 14px;&quot;&gt;EC2 Instance&lt;/div&gt;" style="sketch=0;outlineConnect=0;fontColor=#232F3E;gradientColor=none;fillColor=#ED7100;strokeColor=none;dashed=0;verticalLabelPosition=bottom;verticalAlign=top;align=center;html=1;fontSize=14;fontStyle=1;aspect=fixed;pointerEvents=1;shape=mxgraph.aws4.instance2;labelPosition=center;" parent="fZfX9N8Fhubd6BuBVz-i-65" vertex="1">
          <mxGeometry x="630" y="470" width="80" height="80" as="geometry" />
        </mxCell>
        <mxCell id="8ceHzj7rLfjJUXA0X_Rz-3" style="edgeStyle=orthogonalEdgeStyle;shape=connector;rounded=0;orthogonalLoop=1;jettySize=auto;html=1;strokeColor=#E30000;strokeWidth=3;align=center;verticalAlign=middle;fontFamily=Helvetica;fontSize=11;fontColor=default;labelBackgroundColor=default;startArrow=block;startFill=1;endArrow=block;endFill=1;" edge="1" parent="fZfX9N8Fhubd6BuBVz-i-65" source="fZfX9N8Fhubd6BuBVz-i-5" target="fZfX9N8Fhubd6BuBVz-i-8">
          <mxGeometry relative="1" as="geometry" />
        </mxCell>
        <mxCell id="8ceHzj7rLfjJUXA0X_Rz-4" style="edgeStyle=orthogonalEdgeStyle;shape=connector;rounded=0;orthogonalLoop=1;jettySize=auto;html=1;strokeColor=#41AB00;strokeWidth=3;align=center;verticalAlign=middle;fontFamily=Helvetica;fontSize=11;fontColor=default;labelBackgroundColor=default;startArrow=block;startFill=1;endArrow=block;endFill=1;" edge="1" parent="fZfX9N8Fhubd6BuBVz-i-65" source="fZfX9N8Fhubd6BuBVz-i-5" target="fZfX9N8Fhubd6BuBVz-i-1">
          <mxGeometry relative="1" as="geometry" />
        </mxCell>
        <mxCell id="fZfX9N8Fhubd6BuBVz-i-5" value="Client&lt;div style=&quot;font-size: 14px;&quot;&gt;VPN&lt;/div&gt;&lt;div style=&quot;font-size: 14px;&quot;&gt;IGW&lt;/div&gt;" style="sketch=0;outlineConnect=0;fontColor=#232F3E;gradientColor=none;fillColor=#8C4FFF;strokeColor=none;dashed=0;verticalLabelPosition=middle;verticalAlign=middle;align=left;html=1;fontSize=14;fontStyle=1;aspect=fixed;pointerEvents=1;shape=mxgraph.aws4.internet_gateway;labelPosition=right;spacingTop=0;spacingLeft=10;" parent="fZfX9N8Fhubd6BuBVz-i-65" vertex="1">
          <mxGeometry x="462" y="150" width="78" height="78" as="geometry" />
        </mxCell>
      </root>
    </mxGraphModel>
  </diagram>
</mxfile>
